<svg version="1.2" xmlns="http://www.w3.org/2000/svg" viewBox="0 0 400 400" width="400" height="400">
	<title>New Project</title>
	<style>
		.s0 { fill: #5a7d52 } 
	</style>
	<path id="Background" fill-rule="evenodd" class="s0" d="m298 380.3l-88.1-48.3c-6.7-3.7-14.7-3.7-21.4-0.1l-88.6 47.5c-16.6 8.9-36.1-5.4-32.6-24l18.7-98.7c1.4-7.4-1-15.1-6.5-20.4l-72.6-69.5c-13.6-13-6-36.1 12.7-38.5l99.7-12.6c7.5-1 14.1-5.7 17.4-12.5l43.7-90.5c8.2-17 32.4-16.9 40.5 0.2l42.8 90.8c3.3 6.9 9.8 11.7 17.3 12.7l99.6 13.6c18.7 2.6 26.1 25.7 12.3 38.6l-73.2 68.8c-5.5 5.2-8 12.9-6.7 20.4l17.9 98.8c3.3 18.6-16.4 32.8-32.9 23.7zm-50.4-118l-6.8-38.4c-0.4-2.4 0.4-4.8 2.1-6.4l28.6-26.6c4.3-4.1 2-11.3-3.8-12.1l-38.7-5.4c-2.3-0.3-4.4-1.8-5.4-4l-16.5-35.4c-2.5-5.3-10.1-5.4-12.6-0.1l-17.2 35.1c-1 2.2-3 3.6-5.4 3.9l-38.8 4.8c-5.8 0.7-8.2 7.9-4 12l28.2 27.1c1.7 1.7 2.4 4.1 2 6.4l-7.5 38.3c-1.1 5.8 5 10.3 10.2 7.6l34.5-18.4c2.1-1.1 4.6-1.1 6.7 0.1l34.1 18.9c5.2 2.8 11.4-1.6 10.3-7.4z"/>
</svg>